<mxfile host="Electron" modified="2024-03-02T15:32:35.559Z" agent="Mozilla/5.0 (X11; Linux x86_64) AppleWebKit/537.36 (KHTML, like Gecko) draw.io/23.1.5 Chrome/120.0.6099.276 Electron/28.2.2 Safari/537.36" etag="LIBwDnR6TYJHNZ0V8nQU" version="23.1.5" type="device">
  <diagram name="Pipeline" id="bM1wyGem5J-Yzwbea2OS">
    <mxGraphModel dx="1101" dy="821" grid="1" gridSize="10" guides="1" tooltips="1" connect="1" arrows="1" fold="1" page="1" pageScale="1" pageWidth="1169" pageHeight="827" math="0" shadow="0">
      <root>
        <mxCell id="0" />
        <mxCell id="1" parent="0" />
        <mxCell id="xcvFbu6_DeK8p6TpR7H3-7" style="edgeStyle=orthogonalEdgeStyle;rounded=0;sketch=1;hachureGap=4;jiggle=2;curveFitting=1;orthogonalLoop=1;jettySize=auto;html=1;entryX=0.5;entryY=0;entryDx=0;entryDy=0;exitX=0.5;exitY=1;exitDx=0;exitDy=0;" edge="1" parent="1" source="xcvFbu6_DeK8p6TpR7H3-1" target="xcvFbu6_DeK8p6TpR7H3-35">
          <mxGeometry relative="1" as="geometry" />
        </mxCell>
        <mxCell id="xcvFbu6_DeK8p6TpR7H3-33" style="edgeStyle=orthogonalEdgeStyle;rounded=0;sketch=1;hachureGap=4;jiggle=2;curveFitting=1;orthogonalLoop=1;jettySize=auto;html=1;entryX=0;entryY=0.5;entryDx=0;entryDy=0;dashed=1;" edge="1" parent="1" source="xcvFbu6_DeK8p6TpR7H3-1" target="xcvFbu6_DeK8p6TpR7H3-32">
          <mxGeometry relative="1" as="geometry" />
        </mxCell>
        <mxCell id="xcvFbu6_DeK8p6TpR7H3-1" value="yolc: a YulDSL Compiler" style="shape=process;whiteSpace=wrap;html=1;backgroundOutline=1;sketch=1;hachureGap=4;jiggle=2;curveFitting=1;shadow=0;fillColor=#d5e8d4;strokeColor=#82b366;" vertex="1" parent="1">
          <mxGeometry x="400" y="200" width="160" height="40" as="geometry" />
        </mxCell>
        <mxCell id="xcvFbu6_DeK8p6TpR7H3-4" style="edgeStyle=orthogonalEdgeStyle;rounded=0;sketch=1;hachureGap=4;jiggle=2;curveFitting=1;orthogonalLoop=1;jettySize=auto;html=1;entryX=0.5;entryY=0;entryDx=0;entryDy=0;exitX=0.5;exitY=1;exitDx=0;exitDy=0;" edge="1" parent="1" source="xcvFbu6_DeK8p6TpR7H3-5" target="xcvFbu6_DeK8p6TpR7H3-1">
          <mxGeometry relative="1" as="geometry">
            <mxPoint x="480" y="120" as="sourcePoint" />
          </mxGeometry>
        </mxCell>
        <mxCell id="xcvFbu6_DeK8p6TpR7H3-26" style="edgeStyle=orthogonalEdgeStyle;rounded=0;sketch=1;hachureGap=4;jiggle=2;curveFitting=1;orthogonalLoop=1;jettySize=auto;html=1;entryX=1;entryY=0.5;entryDx=0;entryDy=0;exitX=0;exitY=0.5;exitDx=0;exitDy=0;dashed=1;" edge="1" parent="1" source="xcvFbu6_DeK8p6TpR7H3-1" target="xcvFbu6_DeK8p6TpR7H3-25">
          <mxGeometry relative="1" as="geometry" />
        </mxCell>
        <mxCell id="xcvFbu6_DeK8p6TpR7H3-28" style="edgeStyle=orthogonalEdgeStyle;rounded=0;sketch=1;hachureGap=4;jiggle=2;curveFitting=1;orthogonalLoop=1;jettySize=auto;html=1;entryX=1;entryY=0.5;entryDx=0;entryDy=0;exitX=0;exitY=0.5;exitDx=0;exitDy=0;dashed=1;" edge="1" parent="1" source="xcvFbu6_DeK8p6TpR7H3-1" target="xcvFbu6_DeK8p6TpR7H3-27">
          <mxGeometry relative="1" as="geometry" />
        </mxCell>
        <mxCell id="xcvFbu6_DeK8p6TpR7H3-34" style="edgeStyle=orthogonalEdgeStyle;rounded=0;sketch=1;hachureGap=4;jiggle=2;curveFitting=1;orthogonalLoop=1;jettySize=auto;html=1;entryX=0;entryY=0.5;entryDx=0;entryDy=0;dashed=1;" edge="1" parent="1" source="xcvFbu6_DeK8p6TpR7H3-5" target="xcvFbu6_DeK8p6TpR7H3-30">
          <mxGeometry relative="1" as="geometry" />
        </mxCell>
        <mxCell id="xcvFbu6_DeK8p6TpR7H3-5" value="&amp;lt;&amp;lt;haskell source code&amp;gt;&amp;gt;&lt;br&gt;&lt;br&gt;&lt;b&gt;Smart Contracts in Haskell &amp;amp; YulDSL Library&lt;/b&gt;" style="html=1;align=center;verticalAlign=middle;dashed=0;whiteSpace=wrap;sketch=1;hachureGap=4;jiggle=2;curveFitting=1;fillColor=#fff2cc;strokeColor=#d6b656;" vertex="1" parent="1">
          <mxGeometry x="400" y="80" width="160" height="80" as="geometry" />
        </mxCell>
        <mxCell id="xcvFbu6_DeK8p6TpR7H3-11" style="edgeStyle=orthogonalEdgeStyle;rounded=0;sketch=1;hachureGap=4;jiggle=2;curveFitting=1;orthogonalLoop=1;jettySize=auto;html=1;entryX=0.5;entryY=0;entryDx=0;entryDy=0;" edge="1" parent="1" source="xcvFbu6_DeK8p6TpR7H3-6" target="xcvFbu6_DeK8p6TpR7H3-8">
          <mxGeometry relative="1" as="geometry" />
        </mxCell>
        <mxCell id="xcvFbu6_DeK8p6TpR7H3-6" value="solc --yul" style="shape=process;whiteSpace=wrap;html=1;backgroundOutline=1;sketch=1;hachureGap=4;jiggle=2;curveFitting=1;shadow=0;fillColor=#f8cecc;strokeColor=#b85450;" vertex="1" parent="1">
          <mxGeometry x="400" y="360" width="160" height="40" as="geometry" />
        </mxCell>
        <mxCell id="xcvFbu6_DeK8p6TpR7H3-12" style="edgeStyle=orthogonalEdgeStyle;rounded=0;sketch=1;hachureGap=4;jiggle=2;curveFitting=1;orthogonalLoop=1;jettySize=auto;html=1;entryX=0.5;entryY=0;entryDx=0;entryDy=0;exitX=0.5;exitY=1;exitDx=0;exitDy=0;" edge="1" parent="1" source="xcvFbu6_DeK8p6TpR7H3-8" target="xcvFbu6_DeK8p6TpR7H3-10">
          <mxGeometry relative="1" as="geometry" />
        </mxCell>
        <mxCell id="xcvFbu6_DeK8p6TpR7H3-8" value="&amp;lt;&amp;lt;evm bytecode&amp;gt;&amp;gt;" style="html=1;align=center;verticalAlign=middle;dashed=0;whiteSpace=wrap;sketch=1;hachureGap=4;jiggle=2;curveFitting=1;fillColor=#fff2cc;strokeColor=#d6b656;" vertex="1" parent="1">
          <mxGeometry x="400" y="440" width="160" height="40" as="geometry" />
        </mxCell>
        <mxCell id="xcvFbu6_DeK8p6TpR7H3-9" value="attila" style="shape=process;whiteSpace=wrap;html=1;backgroundOutline=1;sketch=1;hachureGap=4;jiggle=2;curveFitting=1;shadow=0;fillColor=#d5e8d4;strokeColor=#82b366;" vertex="1" parent="1">
          <mxGeometry x="800" y="400" width="160" height="34" as="geometry" />
        </mxCell>
        <mxCell id="xcvFbu6_DeK8p6TpR7H3-14" style="edgeStyle=orthogonalEdgeStyle;rounded=0;sketch=1;hachureGap=4;jiggle=2;curveFitting=1;orthogonalLoop=1;jettySize=auto;html=1;entryX=0.5;entryY=0;entryDx=0;entryDy=0;" edge="1" parent="1" source="xcvFbu6_DeK8p6TpR7H3-10" target="xcvFbu6_DeK8p6TpR7H3-13">
          <mxGeometry relative="1" as="geometry" />
        </mxCell>
        <mxCell id="xcvFbu6_DeK8p6TpR7H3-10" value="&amp;lt;&amp;lt;solidity&amp;gt;&amp;gt;&lt;div&gt;&lt;br&gt;&quot;Stunt Contract&quot; wrapper of the evm byte code&lt;/div&gt;" style="html=1;align=center;verticalAlign=middle;dashed=0;whiteSpace=wrap;sketch=1;hachureGap=4;jiggle=2;curveFitting=1;fillColor=#fff2cc;strokeColor=#d6b656;" vertex="1" parent="1">
          <mxGeometry x="400" y="520" width="160" height="80" as="geometry" />
        </mxCell>
        <mxCell id="xcvFbu6_DeK8p6TpR7H3-17" style="edgeStyle=orthogonalEdgeStyle;rounded=0;sketch=1;hachureGap=4;jiggle=2;curveFitting=1;orthogonalLoop=1;jettySize=auto;html=1;entryX=1;entryY=0.5;entryDx=0;entryDy=0;dashed=1;exitX=0;exitY=0.5;exitDx=0;exitDy=0;" edge="1" parent="1" source="xcvFbu6_DeK8p6TpR7H3-13" target="xcvFbu6_DeK8p6TpR7H3-15">
          <mxGeometry relative="1" as="geometry" />
        </mxCell>
        <mxCell id="xcvFbu6_DeK8p6TpR7H3-18" style="edgeStyle=orthogonalEdgeStyle;rounded=0;sketch=1;hachureGap=4;jiggle=2;curveFitting=1;orthogonalLoop=1;jettySize=auto;html=1;entryX=1;entryY=0.5;entryDx=0;entryDy=0;dashed=1;exitX=0;exitY=0.5;exitDx=0;exitDy=0;" edge="1" parent="1" source="xcvFbu6_DeK8p6TpR7H3-13" target="xcvFbu6_DeK8p6TpR7H3-16">
          <mxGeometry relative="1" as="geometry" />
        </mxCell>
        <mxCell id="xcvFbu6_DeK8p6TpR7H3-13" value="foundry/forge" style="shape=process;whiteSpace=wrap;html=1;backgroundOutline=1;sketch=1;hachureGap=4;jiggle=2;curveFitting=1;shadow=0;fillColor=#f8cecc;strokeColor=#b85450;" vertex="1" parent="1">
          <mxGeometry x="400" y="640" width="160" height="40" as="geometry" />
        </mxCell>
        <mxCell id="xcvFbu6_DeK8p6TpR7H3-15" value="Integration Testing" style="ellipse;whiteSpace=wrap;html=1;sketch=1;hachureGap=4;jiggle=2;curveFitting=1;" vertex="1" parent="1">
          <mxGeometry x="80" y="600" width="120" height="40" as="geometry" />
        </mxCell>
        <mxCell id="xcvFbu6_DeK8p6TpR7H3-16" value="Deployment" style="ellipse;whiteSpace=wrap;html=1;sketch=1;hachureGap=4;jiggle=2;curveFitting=1;" vertex="1" parent="1">
          <mxGeometry x="80" y="680" width="120" height="40" as="geometry" />
        </mxCell>
        <mxCell id="xcvFbu6_DeK8p6TpR7H3-19" value="Pipeline Execution" style="shape=flexArrow;endArrow=classic;html=1;rounded=0;sketch=1;hachureGap=4;jiggle=2;curveFitting=1;" edge="1" parent="1">
          <mxGeometry x="-0.125" y="-20" width="50" height="50" relative="1" as="geometry">
            <mxPoint x="760" y="414" as="sourcePoint" />
            <mxPoint x="600" y="414" as="targetPoint" />
            <mxPoint as="offset" />
          </mxGeometry>
        </mxCell>
        <mxCell id="xcvFbu6_DeK8p6TpR7H3-20" value="A YulDSL Component" style="shape=process;whiteSpace=wrap;html=1;backgroundOutline=1;sketch=1;hachureGap=4;jiggle=2;curveFitting=1;shadow=0;fillColor=#d5e8d4;strokeColor=#82b366;" vertex="1" parent="1">
          <mxGeometry x="920" y="40" width="160" height="40" as="geometry" />
        </mxCell>
        <mxCell id="xcvFbu6_DeK8p6TpR7H3-21" value="A 3rd-party Tool" style="shape=process;whiteSpace=wrap;html=1;backgroundOutline=1;sketch=1;hachureGap=4;jiggle=2;curveFitting=1;shadow=0;fillColor=#f8cecc;strokeColor=#b85450;" vertex="1" parent="1">
          <mxGeometry x="920" y="80" width="160" height="40" as="geometry" />
        </mxCell>
        <mxCell id="xcvFbu6_DeK8p6TpR7H3-22" value="&amp;lt;&amp;lt;some artifact&amp;gt;&amp;gt;" style="html=1;align=center;verticalAlign=middle;dashed=0;whiteSpace=wrap;sketch=1;hachureGap=4;jiggle=2;curveFitting=1;fillColor=#fff2cc;strokeColor=#d6b656;" vertex="1" parent="1">
          <mxGeometry x="920" y="120" width="160" height="40" as="geometry" />
        </mxCell>
        <mxCell id="xcvFbu6_DeK8p6TpR7H3-23" value="A Use Case" style="ellipse;whiteSpace=wrap;html=1;sketch=1;hachureGap=4;jiggle=2;curveFitting=1;" vertex="1" parent="1">
          <mxGeometry x="920" y="160" width="160" height="40" as="geometry" />
        </mxCell>
        <mxCell id="xcvFbu6_DeK8p6TpR7H3-25" value="Testing in Haskell/eDSL" style="ellipse;whiteSpace=wrap;html=1;sketch=1;hachureGap=4;jiggle=2;curveFitting=1;" vertex="1" parent="1">
          <mxGeometry x="80" y="160" width="120" height="40" as="geometry" />
        </mxCell>
        <mxCell id="xcvFbu6_DeK8p6TpR7H3-27" value="Liquid Haskell Validation (tbd)" style="ellipse;whiteSpace=wrap;html=1;sketch=1;hachureGap=4;jiggle=2;curveFitting=1;opacity=66;textOpacity=66;" vertex="1" parent="1">
          <mxGeometry x="80" y="240" width="120" height="40" as="geometry" />
        </mxCell>
        <mxCell id="xcvFbu6_DeK8p6TpR7H3-30" value="YulDSL Haskell Library" style="shape=process;whiteSpace=wrap;html=1;backgroundOutline=1;sketch=1;hachureGap=4;jiggle=2;curveFitting=1;shadow=0;fillColor=#d5e8d4;strokeColor=#82b366;" vertex="1" parent="1">
          <mxGeometry x="640" y="80" width="160" height="80" as="geometry" />
        </mxCell>
        <mxCell id="xcvFbu6_DeK8p6TpR7H3-32" value="GHC, Haskell Compiler" style="shape=process;whiteSpace=wrap;html=1;backgroundOutline=1;sketch=1;hachureGap=4;jiggle=2;curveFitting=1;shadow=0;fillColor=#f8cecc;strokeColor=#b85450;" vertex="1" parent="1">
          <mxGeometry x="640" y="200" width="160" height="40" as="geometry" />
        </mxCell>
        <mxCell id="xcvFbu6_DeK8p6TpR7H3-36" style="edgeStyle=orthogonalEdgeStyle;rounded=0;sketch=1;hachureGap=4;jiggle=2;curveFitting=1;orthogonalLoop=1;jettySize=auto;html=1;exitX=0.5;exitY=1;exitDx=0;exitDy=0;entryX=0.5;entryY=0;entryDx=0;entryDy=0;" edge="1" parent="1" source="xcvFbu6_DeK8p6TpR7H3-35" target="xcvFbu6_DeK8p6TpR7H3-6">
          <mxGeometry relative="1" as="geometry" />
        </mxCell>
        <mxCell id="xcvFbu6_DeK8p6TpR7H3-35" value="&amp;lt;&amp;lt;yul code&amp;gt;&amp;gt;" style="html=1;align=center;verticalAlign=middle;dashed=0;whiteSpace=wrap;sketch=1;hachureGap=4;jiggle=2;curveFitting=1;fillColor=#fff2cc;strokeColor=#d6b656;" vertex="1" parent="1">
          <mxGeometry x="400" y="280" width="160" height="40" as="geometry" />
        </mxCell>
        <mxCell id="xcvFbu6_DeK8p6TpR7H3-37" value="Pipeliine" style="edgeStyle=orthogonalEdgeStyle;rounded=0;sketch=1;hachureGap=4;jiggle=2;curveFitting=1;orthogonalLoop=1;jettySize=auto;html=1;exitX=0.5;exitY=1;exitDx=0;exitDy=0;" edge="1" parent="1">
          <mxGeometry relative="1" as="geometry">
            <mxPoint x="920" y="219.25" as="sourcePoint" />
            <mxPoint x="1080" y="220.25" as="targetPoint" />
          </mxGeometry>
        </mxCell>
      </root>
    </mxGraphModel>
  </diagram>
</mxfile>
